# xmcd CD database file
#
# Track frame offsets:
#	150
#	2620
#	34904
#	70050
#	88930
#	98035
#	118695
#	133733
#	156858
#	170963
#	177010
#
# Disc length: 2634 seconds
#
# Revision: 0
# Processed by: cddbd v1.5.2PL0 Copyright (c) Steve Scherf et al.
# Submitted via: CDex 1.70beta2
#
DISCID=900a480b
DTITLE=Oleg Pissarenko - Prii Lapse Ilm
DYEAR=2009
DGENRE=Jazz
TTITLE0=Kell
TTITLE1=’ige Aeg
TTITLE2=Elementaarne
TTITLE3=R‰‰gi Minuga
TTITLE4=Nad Elavad
TTITLE5=Pisar
TTITLE6=Heledusse
TTITLE7=Prii Lapse Ilm
TTITLE8=Kennule
TTITLE9=jutt
TTITLE10=Fundamentaalne
EXTD=YEAR: 2009
EXTT0=
EXTT1=
EXTT2=
EXTT3=
EXTT4=
EXTT5=
EXTT6=
EXTT7=
EXTT8=
EXTT9=
EXTT10=
PLAYORDER=
